# xmcd
#
# Track frame offsets:
#	150
#	14531
#	27365
#	42490
#	63490
#	80694
#	95183
#	109254
#	124607
#	142030
#	160231
#	174832
#	188818
#	208028
#	224371
#
# Disc length: 3215 seconds
# Revision: 2
# Processed by: cddbd v1.5.2PL0 Copyright (c) Steve Scherf et al.
# Submitted via: dBpowerAMP V12.0
#
DISCID=dd0c8d0f
DTITLE=Various Artist - Night Train
DYEAR=2012
DGENRE=Country
TTITLE0=Jason Aldean - This Nothin' Town
TTITLE1=Jason Aldean - When She Says Baby
TTITLE2=Jason Aldean - Feel That Again
TTITLE3=Jason Aldean - Wheels Rollin'
TTITLE4=Jason Aldean - Talk
TTITLE5=Luke Bryan - The Only Way I Know
TTITLE6=Jason Aldean - Take A Little Ride
TTITLE7=Jason Aldean - I Don't Do Lonely Well
TTITLE8=Jason Aldean - Night Train
TTITLE9=Jason Aldean - 1994
TTITLE10=Jason Aldean - Staring At The Sun
TTITLE11=Jason Aldean - Drink One For Me
TTITLE12=Jason Aldean - Black Tears
TTITLE13=Jason Aldean - Walking Away
TTITLE14=Jason Aldean - Water Tower
EXTD=
EXTT0=
EXTT1=
EXTT2=
EXTT3=
EXTT4=
EXTT5=
EXTT6=
EXTT7=
EXTT8=
EXTT9=
EXTT10=
EXTT11=
EXTT12=
EXTT13=
EXTT14=
PLAYORDER=
